<?xml version="1.0" standalone="no"?>
<!DOCTYPE svg PUBLIC "-//W3C//DTD SVG 20010904//EN"
 "http://www.w3.org/TR/2001/REC-SVG-20010904/DTD/svg10.dtd">
<svg version="1.0" xmlns="http://www.w3.org/2000/svg"
 width="622.000000pt" height="163.000000pt" viewBox="0 0 622.000000 163.000000"
 preserveAspectRatio="xMidYMid meet">
<metadata>
Created by potrace 1.15, written by Peter Selinger 2001-2017
</metadata>
<g transform="translate(0.000000,163.000000) scale(0.100000,-0.100000)"
fill="#000000" stroke="none">
<path d="M704 1621 c-46 -12 -81 -41 -104 -87 -18 -37 -20 -60 -20 -267 l0
-227 -231 0 c-217 0 -234 -1 -269 -21 -21 -12 -47 -39 -59 -60 -21 -37 -22
-48 -19 -278 3 -263 4 -264 72 -315 27 -21 38 -21 565 -21 l538 0 37 29 c67
51 66 39 66 611 0 493 -1 517 -20 554 -11 22 -36 50 -57 62 -37 23 -46 24
-253 26 -118 1 -229 -2 -246 -6z m456 -64 c23 -12 70 -71 70 -88 0 -5 -133 -9
-295 -9 -261 0 -295 2 -295 16 0 26 20 54 53 74 29 18 51 20 237 20 144 0 212
-4 230 -13z m70 -357 c0 -198 0 -200 -20 -188 -19 12 -20 24 -20 180 l0 168
-255 0 -255 0 0 -160 c0 -153 -1 -160 -20 -160 -19 0 -20 7 -20 180 l0 180
295 0 295 0 0 -200z m-1070 -505 c0 -284 -1 -295 -19 -295 -28 0 -77 53 -85
91 -3 17 -6 112 -6 211 0 202 8 235 62 268 18 11 36 20 41 20 4 0 7 -133 7
-295z m820 0 l0 -295 -380 0 -380 0 0 295 0 295 380 0 380 0 0 -295z m188 275
c55 -34 62 -66 62 -280 0 -208 -7 -243 -53 -273 -17 -11 -46 -17 -82 -17 l-55
0 0 295 0 295 48 0 c29 0 59 -8 80 -20z"/>
<path d="M502 790 c-19 -45 -24 -50 -51 -50 -28 0 -31 -3 -31 -30 0 -29 2 -30
44 -30 34 0 48 5 60 21 14 21 15 20 24 -17 6 -22 14 -55 17 -74 10 -50 23 -70
45 -70 14 0 24 17 42 73 l25 72 51 3 c48 3 52 5 52 28 0 20 -5 24 -27 24 -22
0 -31 8 -43 33 -24 52 -51 43 -75 -25 -11 -32 -22 -58 -26 -58 -4 0 -9 17 -13
38 -14 85 -26 112 -50 112 -19 0 -28 -10 -44 -50z"/>
<path d="M2338 1603 l-78 -15 -2 -61 c-1 -39 -3 -49 -5 -27 -3 20 -16 46 -34
65 l-30 30 -247 -2 c-136 -1 -302 -5 -369 -8 -121 -7 -121 -7 -128 -33 -9 -31
-8 -1157 1 -1184 3 -10 12 -18 20 -18 8 0 14 -6 14 -14 0 -23 49 -26 410 -26
l347 0 12 57 c6 31 11 89 11 130 0 61 -3 76 -20 90 -11 10 -20 23 -20 30 0 10
-29 13 -118 13 -66 0 -160 3 -210 6 l-92 7 0 62 0 63 93 4 c50 2 98 7 105 11
9 6 12 47 12 149 0 131 -1 140 -20 145 -11 3 -20 12 -20 19 0 14 -47 19 -138
14 l-44 -2 4 64 3 63 210 6 c116 3 218 9 228 14 14 6 17 21 18 84 1 70 2 73
10 31 4 -25 8 -260 8 -524 l1 -479 28 -26 c26 -25 30 -26 157 -26 72 0 147 4
168 8 l39 8 -7 210 -8 209 36 0 c106 0 224 51 311 134 60 58 94 116 111 191
12 48 12 45 20 -100 4 -82 6 -261 3 -397 -4 -203 -2 -248 9 -248 7 0 13 -7 13
-15 0 -12 17 -15 88 -17 136 -4 208 -1 244 11 l33 11 3 625 c2 554 1 625 -13
625 -8 0 -15 6 -15 13 0 11 -27 16 -107 20 -178 11 -240 9 -247 -8 -3 -9 -9
-98 -12 -198 l-7 -182 -14 60 c-18 78 -48 128 -122 198 -108 103 -247 148
-453 146 -62 -1 -148 -8 -190 -16z m381 -39 c146 -33 246 -107 299 -222 22
-47 26 -72 27 -142 0 -73 -4 -93 -27 -141 -39 -78 -106 -142 -196 -186 -66
-33 -87 -38 -159 -42 l-83 -3 0 -218 0 -217 -31 -7 c-46 -9 -227 -7 -233 2 -3
5 -6 269 -7 587 l-1 579 21 8 c77 28 270 29 390 2z m612 6 l120 0 -3 -592 c-2
-381 -7 -596 -13 -600 -5 -4 -70 -8 -143 -8 l-132 0 2 178 c2 97 2 351 0 563
-3 425 1 478 34 465 9 -3 69 -6 135 -6z m-1153 -126 c3 -109 2 -112 -20 -118
-13 -4 -106 -9 -208 -12 -102 -3 -195 -7 -208 -10 -22 -4 -23 -7 -20 -112 l3
-107 105 -5 105 -5 0 -110 0 -110 -92 -5 c-56 -3 -97 -10 -105 -18 -13 -13
-19 -215 -6 -227 3 -4 108 -9 233 -12 l228 -6 -5 -92 c-3 -51 -8 -97 -12 -104
-5 -8 -103 -11 -345 -11 l-338 0 -7 77 c-8 97 -6 1018 3 1058 l6 30 120 6 c66
3 219 5 340 5 l220 -1 3 -111z"/>
<path d="M2537 1333 c-9 -8 -9 -165 -1 -227 l7 -46 76 0 c42 0 93 5 113 10 51
15 88 61 88 111 0 56 -22 92 -78 128 -44 28 -57 31 -124 31 -41 0 -78 -3 -81
-7z m211 -90 c66 -49 23 -134 -76 -147 -29 -4 -57 -4 -62 -1 -6 3 -10 45 -10
92 l0 85 60 -4 c40 -3 70 -11 88 -25z"/>
<path d="M4935 1611 l-50 -6 -8 -55 c-5 -30 -6 -122 -3 -204 3 -82 4 -147 2
-145 -2 2 -36 75 -75 162 -82 184 -102 212 -155 227 -41 12 -213 17 -223 6
-20 -19 -29 -585 -16 -1023 5 -185 9 -233 20 -233 7 0 13 -6 13 -14 0 -25 236
-40 276 -18 18 10 19 22 16 214 -4 203 0 222 28 148 33 -85 149 -319 169 -339
17 -17 40 -23 114 -30 64 -6 103 -5 127 3 l35 11 3 623 c2 617 2 624 -18 629
-11 3 -20 11 -20 18 0 8 -8 16 -17 19 -33 9 -168 14 -218 7z m179 -41 l26 -10
0 -579 c0 -319 -3 -586 -6 -595 -5 -13 -22 -16 -78 -16 -111 0 -112 1 -161
104 -61 132 -119 267 -163 381 -62 164 -69 142 -71 -222 l-1 -263 -72 0 c-40
0 -90 3 -110 6 l-38 7 1 536 c1 295 4 561 7 591 l7 55 45 3 c25 2 69 1 98 -3
42 -5 55 -11 61 -28 20 -51 210 -434 225 -452 30 -38 36 0 36 247 0 217 1 237
18 241 33 9 151 7 176 -3z"/>
<path d="M3795 1585 c-117 -30 -172 -80 -217 -200 -23 -59 -23 -68 -22 -435 1
-351 2 -379 22 -431 45 -124 95 -174 212 -214 164 -56 386 -13 483 94 76 84
100 254 95 656 l-3 260 -29 58 c-44 86 -145 178 -222 201 -81 24 -242 30 -319
11z m287 -45 c96 -29 144 -68 181 -148 l32 -67 0 -305 c0 -205 -4 -328 -13
-375 -17 -96 -64 -189 -110 -220 -134 -92 -406 -90 -495 3 -54 57 -68 108 -77
300 -31 608 7 767 198 818 74 20 210 17 284 -6z"/>
<path d="M3884 1336 c-82 -36 -128 -152 -129 -321 0 -231 24 -366 75 -408 78
-66 206 -38 258 57 15 27 17 63 16 281 0 248 -1 251 -27 307 -40 89 -111 119
-193 84z m155 -101 c19 -40 33 -277 25 -429 -7 -117 -7 -120 -40 -155 -30 -33
-37 -36 -89 -36 -69 0 -80 12 -89 98 -3 34 -11 103 -18 152 -14 116 1 258 34
318 48 86 147 116 177 52z"/>
<path d="M5507 1589 c-126 -4 -232 -10 -235 -14 -12 -12 -18 -352 -14 -789 5
-407 6 -429 23 -433 11 -3 19 -11 19 -18 0 -22 53 -25 406 -25 l344 0 12 28
c6 15 11 76 12 135 1 93 -1 110 -16 118 -10 6 -18 17 -18 24 0 12 -22 15 -118
15 -66 0 -160 3 -210 6 l-92 7 0 63 0 64 68 0 c37 0 84 5 105 11 l37 10 0 140
c0 132 -1 141 -20 146 -11 3 -20 12 -20 19 0 14 -47 19 -138 14 l-43 -2 3 64
3 63 210 6 c116 3 218 9 228 14 14 6 17 22 19 89 4 150 -1 188 -28 215 -42 42
-99 45 -537 30z m491 -145 c3 -109 2 -112 -20 -118 -13 -4 -106 -9 -208 -12
-102 -3 -195 -7 -208 -10 -22 -4 -23 -7 -20 -112 l3 -107 105 -5 105 -5 0
-110 0 -110 -97 -5 c-53 -3 -100 -9 -104 -13 -10 -9 -11 -223 -2 -232 3 -4
108 -9 233 -12 l228 -6 -6 -93 c-3 -51 -8 -98 -12 -104 -4 -6 -121 -10 -344
-10 l-338 0 -7 77 c-8 98 -8 986 0 1046 l7 46 121 4 c66 1 220 3 341 2 l220 0
3 -111z"/>
<path d="M3657 224 c-3 -3 -116 -6 -251 -5 -167 1 -246 -2 -246 -9 0 -7 -6 -8
-19 0 -25 13 -67 13 -91 0 -13 -7 -21 -7 -25 0 -8 13 -58 13 -72 -1 -8 -8 -13
-8 -17 0 -4 6 -21 11 -37 11 l-30 0 3 -102 3 -103 34 -3 c20 -2 37 2 42 10 7
10 9 10 9 1 0 -8 14 -13 35 -13 19 0 35 5 35 10 0 6 11 3 25 -6 32 -21 89 -11
110 19 8 12 15 43 15 69 0 74 19 57 22 -19 l3 -68 38 -3 37 -3 0 70 c0 73 19
102 21 34 2 -38 4 -67 7 -90 1 -9 26 -13 82 -13 l80 0 0 29 c0 21 6 32 21 36
17 6 20 13 17 41 -3 28 -1 34 14 34 16 0 18 -9 18 -70 l0 -70 40 0 c22 0 40 4
40 9 0 5 14 3 30 -6 21 -10 40 -12 63 -7 17 5 51 7 75 5 35 -2 42 0 42 16 1
17 1 17 11 1 8 -15 24 -18 86 -18 l75 0 -7 70 c-6 60 -5 70 9 70 13 0 16 -12
16 -70 l0 -70 40 0 c22 0 40 4 40 9 0 5 14 3 30 -6 21 -10 40 -12 63 -7 17 4
53 7 80 5 39 -2 47 1 47 16 1 17 1 17 11 0 13 -22 69 -24 69 -1 0 14 2 14 22
0 32 -23 94 -20 118 4 24 24 25 48 5 77 -13 19 -13 22 0 27 23 9 18 43 -11 65
-32 25 -81 27 -112 5 -20 -14 -22 -14 -22 0 0 12 -10 16 -35 16 -27 0 -35 -4
-35 -17 -1 -17 -1 -17 -11 0 -11 19 -65 24 -71 6 -3 -9 -10 -9 -23 -2 -12 6
-105 11 -222 12 l-203 0 -6 -24 c-6 -24 -24 -35 -24 -15 0 26 -94 62 -113 44z
m-519 -36 c16 -16 16 -130 0 -146 -20 -20 -76 -15 -88 7 -13 25 -13 107 0 132
12 22 68 27 88 7z m1077 -5 c13 -13 16 -30 13 -76 -5 -66 -16 -78 -68 -75
l-35 3 -3 68 c-2 42 2 74 9 83 16 19 64 18 84 -3z"/>
<path d="M4 207 c-2 -7 -4 -54 -2 -103 l3 -89 78 -3 c77 -3 77 -3 77 23 0 24
2 25 69 25 65 0 70 -2 73 -22 2 -19 10 -24 45 -26 l42 -3 -6 35 c-4 28 -2 36
10 36 8 0 23 3 31 6 14 5 16 0 10 -35 l-7 -41 42 0 c32 0 41 4 41 18 1 16 1
16 11 0 8 -15 24 -18 79 -18 l70 0 0 70 c0 90 18 92 22 3 l3 -68 149 -3 c113
-2 151 1 158 10 6 10 8 10 8 1 0 -8 14 -13 35 -13 l35 0 0 70 c0 90 18 92 22
3 l3 -68 44 -3 43 -3 -7 70 c-7 67 -6 71 13 71 23 0 34 29 20 54 -7 13 -27 16
-108 16 -58 0 -101 -4 -105 -10 -5 -8 -11 -8 -19 -1 -8 7 -103 11 -261 10
-236 0 -247 -1 -252 -20 -5 -19 -23 -27 -23 -11 0 16 -51 32 -100 32 l-50 0 0
-45 0 -45 -80 0 -80 0 0 -30 c0 -27 -3 -30 -32 -29 -24 1 -27 3 -10 6 17 3 22
11 22 34 0 23 -5 29 -22 30 -13 1 -5 5 17 8 36 5 40 9 40 36 l0 30 -73 3 c-54
2 -74 -1 -78 -11z"/>
<path d="M1270 115 l0 -105 79 0 c54 0 81 4 84 13 4 9 6 9 6 0 1 -9 23 -13 76
-13 l75 0 0 29 c0 21 6 32 21 36 17 6 20 13 17 41 -3 23 0 34 9 34 9 0 13 -15
13 -49 0 -64 24 -95 71 -93 19 0 98 1 176 1 l142 0 4 33 4 33 1 -32 2 -33 65
0 c44 0 65 4 65 12 0 9 3 9 12 0 7 -7 42 -12 86 -12 l74 0 -7 70 c-6 60 -5 70
9 70 13 0 16 -13 16 -71 l0 -70 48 2 c26 1 64 -2 84 -6 26 -5 46 -2 67 8 17 9
31 11 31 6 0 -5 16 -9 35 -9 27 0 35 4 35 18 1 16 1 16 11 0 8 -14 24 -18 74
-18 56 0 65 3 65 18 0 23 -19 42 -42 42 -14 0 -18 11 -20 73 l-3 72 -37 3
c-26 2 -38 -1 -38 -9 0 -10 -3 -10 -12 -1 -18 18 -68 15 -68 -4 0 -14 -2 -14
-22 0 -26 18 -70 21 -98 6 -13 -7 -21 -7 -25 0 -4 6 -64 10 -155 9 l-149 0
-11 -37 c-5 -20 -11 -44 -12 -52 0 -8 -4 8 -7 35 l-6 50 -70 2 c-38 1 -75 -3
-83 -9 -9 -8 -16 -8 -24 0 -16 16 -135 16 -141 0 -3 -10 -7 -10 -18 -2 -17 15
-329 17 -346 3 -7 -7 -14 -6 -18 1 -3 5 -37 10 -76 10 l-69 0 0 -105z m506 60
c18 -28 14 -106 -7 -131 -13 -16 -75 -19 -84 -4 -3 6 -7 40 -8 75 -2 72 6 85
55 85 19 0 33 -8 44 -25z m792 13 c15 -15 16 -112 2 -139 -12 -22 -68 -27 -88
-7 -7 7 -12 39 -12 73 0 69 10 85 55 85 17 0 36 -5 43 -12z"/>
<path d="M4611 206 c-8 -9 -11 -46 -9 -103 l3 -88 43 -3 c41 -3 42 -2 42 27 0
21 6 32 21 36 17 6 20 13 17 41 -3 22 0 34 8 34 7 0 13 -22 16 -56 6 -65 24
-88 70 -86 18 0 62 1 97 1 40 1 68 6 73 14 6 9 8 9 8 0 0 -8 15 -13 40 -13 45
0 50 12 21 50 -19 24 -19 25 0 48 26 33 24 58 -6 87 -21 22 -33 25 -90 25 -38
0 -65 -4 -65 -10 0 -7 -6 -7 -17 -2 -10 5 -73 10 -139 10 -93 2 -124 -1 -133
-12z m264 -23 c13 -13 16 -30 13 -76 -5 -66 -16 -78 -68 -75 l-35 3 -3 68 c-2
42 2 74 9 83 16 19 64 18 84 -3z"/>
<path d="M5126 204 c-8 -20 -8 -142 0 -172 6 -21 11 -22 110 -22 74 0 104 3
104 12 0 9 3 9 12 0 7 -7 39 -12 75 -12 l63 0 0 33 c0 28 4 33 35 43 l34 11 3
-41 3 -41 109 -3 c81 -2 112 1 118 10 6 10 8 10 8 1 0 -8 15 -13 40 -13 45 0
50 12 21 49 -18 23 -18 25 3 57 25 39 32 42 32 12 0 -13 1 -44 2 -70 l2 -48
40 0 40 0 0 73 0 72 24 -30 c23 -29 23 -30 5 -37 -49 -19 8 -78 75 -78 23 0
47 5 54 12 9 9 12 9 12 0 0 -7 14 -12 35 -12 27 0 35 4 35 18 0 23 -19 42 -42
42 -10 0 -18 5 -18 12 0 6 -7 20 -17 30 -15 17 -15 18 0 18 12 0 17 9 17 30 0
46 -72 76 -120 50 -11 -6 -21 -6 -25 -1 -3 5 -101 10 -226 10 -185 1 -221 -2
-225 -14 -5 -13 -9 -13 -27 0 -27 19 -187 22 -187 3 0 -9 -3 -9 -12 0 -8 8
-47 12 -109 12 -79 0 -98 -3 -103 -16z"/>
</g>
</svg>
